<svg width="80" height="80" viewBox="0 0 80 80" fill="none" xmlns="http://www.w3.org/2000/svg">
<rect width="80" height="80" fill="#333333"/>
<path fill-rule="evenodd" clip-rule="evenodd" d="M35 13C35 13 35 13 35 13V23C35 31.2843 41.7157 38 50 38C58.2843 38 65 31.2843 65 23V13C65 13 65 13 65 13H55C55 13 55 13 55 13V23C55 25.7615 52.7614 28 50 28C47.2386 28 45 25.7615 45 23V13C45 13 45 13 45 13H35Z" fill="white"/>
<path fill-rule="evenodd" clip-rule="evenodd" d="M15 13C15 13 15 13 15 13V23C15 31.2843 21.7157 38 30 38C38.2843 38 45 31.2843 45 23V13C45 13 45 13 45 13H35C35 13 35 13 35 13V23C35 25.7615 32.7614 28 30 28C27.2386 28 25 25.7615 25 23V13C25 13 25 13 25 13H15Z" fill="white"/>
<path fill-rule="evenodd" clip-rule="evenodd" d="M25 47C25 47 25 47.0001 25 47.0001C25 58.0458 33.9543 67.0001 45 67.0001C56.0457 67.0001 65 58.0458 65 47.0001C65 47.0001 65 47 65 47H55C55 52.5228 50.5228 57 45 57C39.4772 57 35 52.5228 35 47H25Z" fill="white"/>
<rect x="55" y="13" width="10" height="34" fill="white"/>
<path fill-rule="evenodd" clip-rule="evenodd" d="M25 13V15C25 16.1046 25.8954 17 27 17C28.1046 17 29 16.1046 29 15V13H25Z" fill="white"/>
<path fill-rule="evenodd" clip-rule="evenodd" d="M45 13V15C45 16.1046 45.8954 17 47 17C48.1046 17 49 16.1046 49 15V13H45Z" fill="white"/>
</svg>
